<svg width="186" height="268" viewBox="0 0 186 268" fill="none" xmlns="http://www.w3.org/2000/svg">
    <path d="M178.46 36.6677L158.119 106.78L116.719 109.593L158.969 29.4733C160.801 25.8107 164.463 23.6523 168.322 23.6523C169.565 23.6523 170.808 23.8486 172.05 24.3718C176.955 26.3339 179.702 31.5662 178.46 36.6677Z" fill="#90573F"/>
    <path d="M150.35 59.9357C161.384 48.9018 161.384 31.0123 150.35 19.9784C139.316 8.94451 121.427 8.94453 110.393 19.9784C99.3588 31.0123 99.3588 48.9018 110.393 59.9357C121.427 70.9696 139.316 70.9696 150.35 59.9357Z" fill="#FF614F"/>
    <path d="M112.528 26.0731L111.547 25.2883C116.125 19.402 122.992 16.0664 130.383 16.0664C134.242 16.0664 138.101 16.9821 141.502 18.8134L140.913 19.9252C137.708 18.2247 134.046 17.3745 130.383 17.3745C123.385 17.3091 116.845 20.5138 112.528 26.0731Z" fill="white"/>
    <path d="M130.389 63.8107C126.988 63.8107 123.652 63.0913 120.578 61.7178L121.101 60.5405C124.045 61.8486 127.118 62.5026 130.389 62.5026C142.881 62.5026 153.018 52.3651 153.018 39.873H154.261C154.261 53.15 143.6 63.8107 130.389 63.8107Z" fill="#1C2928"/>
    <path d="M184.476 164.597C183.299 169.11 180.683 178.855 180.683 178.855C180.617 178.986 180.617 179.182 180.552 179.313C178.851 187.358 173.881 194.356 166.752 198.607L102.133 245.37L95.8544 268H0.234375L38.5608 181.798L64.9839 87.8134L68.1886 79.965C70.0199 75.5175 72.5707 71.4625 75.7754 67.8653L86.894 55.5041L88.5291 57.1391L94.3501 50.6642C95.9197 48.8983 96.77 46.8708 96.77 44.5163L97.8819 43.2736C99.1245 41.9001 100.76 41.2461 102.395 41.2461C104.422 41.2461 106.384 42.2272 107.562 44.1239C113.121 53.0187 112.925 64.3989 107.104 73.0976L96.1814 89.3831L91.8647 126.401L97.6202 121.627C97.751 121.496 97.9472 121.365 98.078 121.235L115.933 109.331C116.783 108.743 117.765 108.415 118.811 108.35L157.857 105.669C158.38 105.669 158.903 105.669 159.427 105.799L162.37 106.388C164.92 106.911 166.752 109.07 166.752 111.686L166.817 123.262L172.9 124.832C173.619 125.028 176.889 126.532 177.02 128.887V149.751L177.87 150.143C181.402 151.713 183.757 154.59 184.672 157.991C185.196 160.215 185.065 162.439 184.476 164.597Z" fill="#90573F"/>
    <path d="M96.2391 88.793H86.1016V90.0356H96.2391V88.793Z" fill="#1C2928"/>
    <path d="M96.8369 44.5156C96.8369 46.8702 95.9866 48.8977 94.417 50.6636L88.596 57.1385L86.9609 55.5034L96.8369 44.5156Z" fill="#D0AB89"/>
    <path d="M111.745 127.449L103.438 132.551C100.299 134.447 99.3834 138.568 101.28 141.642C103.177 144.781 107.297 145.697 110.371 143.8L118.677 138.699L111.745 127.449Z" fill="#D0AB89"/>
    <path d="M123.518 146.023L115.212 151.125C112.073 153.022 111.157 157.142 113.054 160.216C114.95 163.355 119.071 164.336 122.145 162.374L130.451 157.273L123.518 146.023Z" fill="#D0AB89"/>
    <path d="M135.549 164.795L127.243 169.896C124.104 171.793 123.188 175.913 125.085 178.987C126.981 182.127 131.102 183.043 134.176 181.146L142.482 176.044L135.549 164.795Z" fill="#D0AB89"/>
    <path d="M177.411 149.619L164.069 145.76C161.583 145.041 158.967 145.433 156.744 146.807L125.219 167.147C124.107 167.867 122.407 168.913 120.706 169.96C115.932 172.903 109.653 171.595 106.448 167.016C104.748 164.596 104.159 161.719 104.682 158.841C105.271 155.963 106.906 153.543 109.391 151.908L153.539 123.458C156.155 121.757 159.36 121.299 162.303 122.215L172.31 125.289C174.664 126.008 176.234 128.101 176.234 130.587H177.476C177.476 127.578 175.514 124.962 172.637 124.046L162.63 120.972C159.294 119.991 155.697 120.514 152.819 122.411L108.672 150.862C107.822 151.385 107.102 152.039 106.448 152.758C102.132 153.936 97.5534 152.301 94.9373 148.638C93.2368 146.218 92.6481 143.34 93.1713 140.462C93.76 137.585 95.3951 135.165 97.8804 133.53L142.028 105.079C144.644 103.379 147.849 102.921 150.792 103.837L151.184 102.594C147.849 101.613 144.252 102.136 141.374 104.033L97.2264 132.483C94.4794 134.249 92.6481 136.996 91.9941 140.201C91.3401 143.406 92.0595 146.676 93.9562 149.357C96.2453 152.562 99.908 154.459 103.701 154.459C104.225 154.459 104.748 154.393 105.271 154.328C104.421 155.636 103.832 157.075 103.505 158.645C102.851 161.849 103.571 165.12 105.467 167.801C106.841 169.763 108.737 171.137 110.83 171.987C112.4 186.899 109.718 201.549 102.589 216.788L103.767 217.312C110.83 202.203 113.577 187.684 112.204 172.903C113.708 173.949 115.278 174.669 116.978 175.126C116.717 175.846 116.455 176.565 116.324 177.35C115.67 180.555 116.39 183.825 118.286 186.507C119.529 188.272 121.164 189.581 122.995 190.431C127.835 194.617 134.833 195.271 140.327 191.935L162.172 178.854C166.227 176.434 169.17 172.51 170.478 167.997L173.487 166.231L172.833 165.12L155.828 175.192L138.104 185.918C136.992 186.637 135.291 187.684 133.591 188.73C131.825 189.842 129.863 190.3 127.901 190.3H127.77C124.5 190.235 121.36 188.6 119.333 185.787C117.632 183.367 117.044 180.489 117.567 177.612C118.156 174.734 119.791 172.314 122.276 170.679L157.594 147.918C159.425 146.741 161.714 146.414 163.873 147.003L177.215 150.862C182.316 152.366 185.456 157.598 184.344 162.765L185.587 163.027C186.633 157.14 183.167 151.254 177.411 149.619Z" fill="#1C2928"/>
</svg>