<svg width="198" height="268" viewBox="0 0 198 268" fill="none" xmlns="http://www.w3.org/2000/svg">
<path d="M130.653 216.242L129.356 217.799L128.059 219.42L121.378 227.658L88.754 268H0.609375L22.078 173.11C23.6346 166.106 26.8776 159.62 31.4827 154.171L65.2747 113.764L66.8961 111.883L68.5176 110.002L81.0356 95.084V139.578L76.5603 145.74L82.3328 152.744L91.4132 163.771L79.1547 203.076L77.2089 209.367L76.8846 210.405L76.5603 211.443L75.6522 214.232L76.5603 214.491L90.1809 214.945H90.2457L130.653 216.242Z" fill="#90573F"/>
<path d="M129.428 217.799L121.45 227.658H83.9609C85.9067 224.285 87.5931 220.977 89.02 217.799H129.428Z" fill="#1C2928"/>
<path d="M197.394 124.981C197.394 127.057 196.875 129.068 195.902 130.884C194.929 132.7 193.567 134.191 191.816 135.359L183.19 141.131L182.995 141.261L182.346 141.715C186.822 143.466 190.324 147.812 190.324 153.39C190.324 155.466 189.805 157.476 188.832 159.292C187.86 161.108 186.497 162.6 184.746 163.768L180.012 166.946L179.882 167.011L168.531 174.599V92.746L177.871 86.5195C178.52 86.0655 179.168 85.7411 179.882 85.4168C180.919 84.9628 181.957 84.6386 182.995 84.5088C190.13 83.4062 197.394 88.8544 197.394 96.8971C197.394 98.9726 196.875 100.983 195.902 102.799C194.929 104.615 193.567 106.107 191.816 107.34L184.227 112.399C190.973 112.139 197.394 117.393 197.394 124.981Z" fill="#90573F"/>
<path d="M189.93 135.668L171.555 147.979L172.241 149.002L190.616 136.692L189.93 135.668Z" fill="#1C2928"/>
<path d="M189.43 108.343L172.133 119.932L172.819 120.955L190.116 109.367L189.43 108.343Z" fill="#1C2928"/>
<path d="M179.877 85.416V167.075L162.43 178.814V96.8962L165.608 94.7559L177.931 86.5186C178.515 86.0646 179.163 85.7403 179.877 85.416Z" fill="#1C2928"/>
<path d="M73.9735 38.334H64.1797V64.3428H73.9735V38.334Z" fill="#1C2928"/>
<path d="M73.9735 68.4902H64.1797V94.499H73.9735V68.4902Z" fill="#1C2928"/>
<path d="M172.361 220.266H70.3359C68.7792 220.266 67.5469 219.034 67.5469 217.477V4.34756C67.5469 2.79092 68.7792 1.55859 70.3359 1.55859H172.361C173.917 1.55859 175.15 2.79092 175.15 4.34756V217.542C175.085 219.034 173.852 220.266 172.361 220.266Z" fill="white"/>
<path d="M168.536 0H74.0997C69.6243 0 65.9922 3.63215 65.9922 8.10749V149.567V153.848V213.713C65.9922 218.189 69.6243 221.821 74.0997 221.821H168.536C173.011 221.821 176.643 218.189 176.643 213.713V8.10749C176.643 3.63215 173.011 0 168.536 0ZM173.53 213.713C173.53 216.502 171.26 218.708 168.536 218.708H74.0997C71.3107 218.708 69.1054 216.437 69.1054 213.713V153.848V149.567V8.10749C69.1054 5.31851 71.3756 3.11327 74.0997 3.11327H168.536C171.325 3.11327 173.53 5.38337 173.53 8.10749V213.713Z" fill="#1C2928"/>
<path d="M178.459 48.7109H174.438V80.6869H178.459V48.7109Z" fill="#1C2928"/>
<path d="M123.257 7.98047C120.857 7.98047 118.977 9.92625 118.977 12.2612C118.977 14.661 120.922 16.542 123.257 16.542C125.592 16.542 127.538 14.5962 127.538 12.2612C127.538 9.92625 125.592 7.98047 123.257 7.98047Z" fill="#1C2928"/>
<path d="M123.27 11.2891C122.751 11.2891 122.297 11.7431 122.297 12.262C122.297 12.7808 122.751 13.2349 123.27 13.2349C123.789 13.2349 124.243 12.7808 124.243 12.262C124.243 11.7431 123.789 11.2891 123.27 11.2891Z" fill="#FF614F"/>
<path d="M134.373 187.043C149.505 179.502 157.537 164.891 152.313 154.407C147.089 143.923 130.586 141.538 115.454 149.079C100.322 156.619 92.2897 171.231 97.514 181.715C102.738 192.198 119.24 194.584 134.373 187.043Z" fill="#C8E993"/>
<path d="M103.287 170.84L102.055 170.71C102.444 165.716 104.519 160.787 107.892 156.766L108.865 157.609C105.687 161.436 103.676 166.17 103.287 170.84Z" fill="#1C2928"/>
<path d="M120.275 191.202C115.929 191.202 111.778 189.84 108.405 186.986C106.07 185.041 104.384 182.576 103.281 179.657L104.449 179.203C105.486 181.927 107.108 184.197 109.248 186.013C117.096 192.629 129.679 190.683 137.333 181.603L138.306 182.446C133.441 188.219 126.696 191.202 120.275 191.202Z" fill="#1C2928"/>
<path d="M141.348 178.037L140.245 177.453C144.915 168.762 143.618 158.774 137.002 153.261C132.332 149.304 125.717 148.266 119.295 150.472L118.906 149.304C125.717 146.969 132.851 148.072 137.845 152.288C144.85 158.19 146.277 168.762 141.348 178.037Z" fill="#1C2928"/>
<path d="M123.267 186.858L123.008 185.625C127.159 184.782 131.05 182.382 134.034 178.88C137.082 175.248 138.769 170.902 138.834 166.557H140.066C140.001 171.162 138.185 175.832 134.942 179.658C131.894 183.42 127.678 186.015 123.267 186.858Z" fill="#1C2928"/>
<path d="M116.003 186.665C114.123 186.146 112.436 185.238 110.944 184.005C107.766 181.281 106.015 177.26 106.08 172.59C106.145 167.985 107.961 163.315 111.204 159.488C114.447 155.662 118.728 153.067 123.268 152.224C127.808 151.381 132.089 152.419 135.332 155.078C137.537 156.894 139.029 159.423 139.742 162.342L138.51 162.666C137.861 160.007 136.499 157.737 134.489 156.051C131.57 153.586 127.678 152.678 123.462 153.456C119.246 154.235 115.225 156.634 112.177 160.267C109.128 163.899 107.442 168.244 107.377 172.525C107.312 176.806 108.869 180.503 111.788 182.968C113.085 184.07 114.641 184.913 116.328 185.367L116.003 186.665Z" fill="#1C2928"/>
<path d="M119.425 183.485C117.025 183.485 114.885 182.771 113.198 181.344C111.058 179.528 109.891 176.739 109.891 173.496H111.123C111.123 176.35 112.161 178.815 114.042 180.371C115.793 181.863 118.128 182.447 120.852 182.122L120.982 183.355C120.463 183.484 119.944 183.485 119.425 183.485Z" fill="#1C2928"/>
<path d="M129.684 179.268L128.841 178.295C129.554 177.647 130.268 176.933 130.917 176.22C135.911 170.318 136.495 162.534 132.214 158.902C128.841 156.048 123.328 156.502 118.528 160.07L117.75 159.032C123.004 155.14 129.165 154.686 132.992 157.929C137.857 162.016 137.338 170.577 131.889 177.063C131.176 177.841 130.463 178.555 129.684 179.268Z" fill="#1C2928"/>
<path d="M128.175 173.887L127.202 173.043C130.705 168.892 131.807 163.768 129.602 161.887C127.397 160.007 122.532 161.952 118.965 166.103L117.992 165.26C122.078 160.396 127.527 158.515 130.38 160.915C133.234 163.379 132.261 169.087 128.175 173.887Z" fill="#1C2928"/>
<path d="M155.506 77.6325C162.057 90.7342 152.003 108.96 133.129 118.365C114.255 127.769 93.6293 124.786 87.1433 111.684C80.5925 98.5822 90.6458 80.3566 109.52 70.9519C112.244 69.5899 115.033 68.4873 117.822 67.6441C134.102 62.6499 149.993 66.4766 155.506 77.6325Z" fill="white"/>
<path d="M155.645 77.5658C157.526 81.4574 158.045 85.8679 157.461 90.1486C156.877 94.4294 155.256 98.5804 152.986 102.277C148.445 109.801 141.376 115.509 133.593 119.271C125.68 122.903 116.988 124.784 108.362 124.135C104.081 123.811 99.8006 122.838 95.909 120.892C92.0823 118.882 88.5798 115.898 86.5043 112.006C84.4288 108.05 83.8451 103.445 84.4937 99.0344C85.1423 94.6239 86.8934 90.4729 89.2932 86.7759C94.0929 79.3819 101.098 73.6742 108.881 69.7178C116.729 65.891 125.55 63.8155 134.306 64.7235C138.652 65.1776 142.932 66.2802 146.694 68.4854C150.521 70.5609 153.699 73.7391 155.645 77.5658ZM155.45 77.6955C154.413 75.8794 153.245 74.0634 151.624 72.6365C150.067 71.2095 148.316 69.9772 146.37 69.134C144.489 68.1611 142.478 67.6423 140.403 67.1234C138.327 66.7342 136.252 66.4748 134.176 66.4099C130.025 66.345 125.809 66.8639 121.788 67.8368C117.767 68.8746 113.81 70.2366 110.113 72.1824C102.719 76.0092 95.9739 81.2628 91.304 88.138C89.0339 91.5755 87.2178 95.4023 86.5043 99.4236C85.7909 103.445 86.0503 107.661 87.7367 111.423C89.4879 115.12 92.6011 118.233 96.2981 120.179C99.9952 122.189 104.211 123.162 108.427 123.422C112.643 123.681 116.859 123.097 120.945 122.06C125.031 121.022 128.923 119.465 132.685 117.519C140.079 113.563 146.759 108.309 151.688 101.499C154.088 98.1264 155.969 94.2348 156.812 90.0837C157.72 85.9327 157.266 81.5223 155.45 77.6955Z" fill="#FF614F"/>
<path d="M66.333 159.54L42.9219 190.951L43.91 191.688L67.3211 160.277L66.333 159.54Z" fill="#1C2928"/>
<path d="M138.181 153.393C137.727 157.868 135.327 161.954 131.824 164.808L96.6055 193.346C96.6055 193.346 92.4545 212.675 85.5793 224.609L20.9141 222.728L70.6616 156.052L107.567 145.155L116.388 156.246L124.43 152.874C127.284 151.706 128.192 148.074 126.246 145.674L124.171 143.08C123.133 141.783 121.512 141.199 119.955 141.394L122.225 140.745C126.571 139.448 131.435 140.421 134.678 143.599C136.948 145.804 138.635 148.982 138.181 153.393Z" fill="#90573F"/>
<path d="M124.621 152.873L116.579 156.246L107.758 145.155L108.277 145.025L120.211 141.523C121.768 141.328 123.389 141.912 124.427 143.209L126.502 145.804C128.383 148.139 127.475 151.706 124.621 152.873Z" fill="#D0AB89"/>
<path d="M67.2885 249.774L66.4453 248.866C72.9313 242.769 78.7038 235.505 83.4386 227.333C85.2546 224.219 86.941 220.912 88.4328 217.539C94.4648 204.113 96.0214 193.411 96.0214 193.281L97.2538 193.476C97.2538 193.606 95.6971 204.502 89.5354 218.058C88.0436 221.43 86.2925 224.803 84.4764 227.981C79.6768 236.283 73.9042 243.613 67.2885 249.774Z" fill="#1C2928"/>
<path d="M75.1389 157.52L74.1562 158.264L84.4117 171.814L85.3944 171.07L75.1389 157.52Z" fill="#1C2928"/>
</svg>
