<svg width="298" height="242" viewBox="0 0 298 242" fill="none" xmlns="http://www.w3.org/2000/svg">
<path d="M173.769 196.951L172.533 197.337H52.08L12.2895 158.474L2.70892 149.666C1.47271 148.507 1.39537 146.498 2.63158 145.339C7.57642 140.626 14.6074 138.772 21.2521 140.549C23.9563 141.244 26.4287 142.48 28.5921 144.257L29.5965 145.03C34.4641 143.794 39.5635 144.566 43.8902 147.348L91.7934 178.717L74.5637 153.297L77.2679 152.447C85.0714 149.82 93.6477 151.675 99.7515 157.238L120.303 175.935L173.769 196.951Z" fill="#1C2928"/>
<path d="M163.1 78.2812H141.93V163.814H163.1V78.2812Z" fill="white"/>
<path d="M222.862 138.842L221.703 138.378C225.566 129.029 233.602 122.308 243.414 120.067C234.143 115.354 227.884 106.546 226.648 96.1153C225.412 85.6848 229.352 75.6406 237.233 68.8415C237.079 68.8415 236.924 68.8415 236.769 68.8415C226.571 68.8415 217.145 63.8966 211.273 55.3977C205.323 46.7442 204.164 36.0046 208.028 26.3467C198.911 31.2916 188.094 31.4461 178.745 26.5013C169.396 21.6337 163.369 12.6712 162.365 2.31789C156.57 10.9714 147.067 16.0707 136.559 16.0707C136.559 16.0707 136.559 16.0707 136.482 16.0707C125.974 16.0707 116.471 10.8941 110.676 2.24063C109.594 12.5939 103.491 21.5564 94.2189 26.424C84.8701 31.2916 74.1306 31.137 64.9363 26.1922C68.7994 35.8501 67.5632 46.5896 61.6139 55.2431C55.5874 63.8966 46.0068 68.8415 35.5763 68.6097C43.4571 75.4088 47.3974 85.453 46.084 95.8836C44.7705 106.314 38.5894 115.122 29.2406 119.835C39.1302 122.153 47.1658 128.952 51.0289 138.456L49.87 138.919C46.0068 129.184 37.5077 122.385 27.1545 120.685L27 119.526C36.8897 115.277 43.5344 106.391 44.8479 95.8063C46.1613 85.144 41.8345 74.9453 33.3355 68.4551L33.7992 67.2962C44.4615 68.1461 54.5057 63.3558 60.6095 54.5478C66.7133 45.7398 67.6404 34.6912 63.0819 24.956L64.009 24.1834C73.0488 29.9009 84.1748 30.3644 93.6781 25.3423C103.182 20.3975 109.131 11.0486 109.594 0.309048L110.753 0C116.162 9.27158 125.742 14.8345 136.482 14.8345C136.482 14.8345 136.482 14.8345 136.559 14.8345C147.299 14.8345 156.879 9.34884 162.288 0.0772679L163.447 0.386316C163.91 11.1259 169.86 20.4747 179.286 25.4968C188.789 30.5189 199.838 30.0554 208.955 24.4152L209.882 25.1878C205.323 34.9229 206.173 45.9716 212.277 54.7796C218.381 63.5876 228.348 68.3779 239.087 67.6052L239.474 68.7642C230.897 75.2543 226.571 85.453 227.807 96.1153C229.12 106.778 235.688 115.663 245.577 119.912L245.423 121.071C235.301 122.617 226.802 129.338 222.862 138.842Z" fill="#1C2928"/>
<path d="M206.3 78.2441V210.907H68.3828V114.018H78.7362V149.946H89.7851V114.018H137.303V100.496V78.2441H144.488V162.231L160.482 161.304V78.2441H206.3Z" fill="#FF614F"/>
<path d="M89.7443 114.061V191.789L78.6953 186.072V114.061H89.7443Z" fill="white"/>
<path d="M137.265 114.117H130.234V164.803H137.265V114.117Z" fill="#1C2928"/>
<path d="M103.427 93.4099C100.491 85.0653 94.0009 78.575 85.6562 75.639V74.48C94.0009 71.5439 100.491 65.0536 103.427 56.709H104.586C107.522 65.0536 114.013 71.5439 122.357 74.48V75.639C114.013 78.575 107.522 85.0653 104.586 93.4099H103.427ZM87.5879 75.0208C95.0826 78.1114 100.955 83.9836 104.045 91.4783C107.136 83.9836 113.008 78.1114 120.503 75.0208C113.008 71.9302 107.136 66.0581 104.045 58.5634C100.878 66.0581 95.0053 71.9302 87.5879 75.0208Z" fill="#C8E993"/>
<path d="M157.127 43.2617C155.89 46.8159 153.109 49.5975 149.555 50.8337C153.109 52.07 155.89 54.8515 157.127 58.4057C158.363 54.8515 161.145 52.07 164.699 50.8337C161.145 49.5975 158.363 46.8159 157.127 43.2617Z" fill="#C8E993"/>
<path d="M134.198 125.947H68.4453V127.415H134.198V125.947Z" fill="#1C2928"/>
<path d="M134.221 139.461H68.3906V140.929H134.221V139.461Z" fill="#1C2928"/>
<path d="M134.221 153.531H68.3906V154.999H134.221V153.531Z" fill="#1C2928"/>
<path d="M125.181 167.119H68.3906V168.587H125.181V167.119Z" fill="#1C2928"/>
<path d="M206.21 90.6309H137.289V92.0989H206.21V90.6309Z" fill="#1C2928"/>
<path d="M206.287 104.158H137.289V105.626H206.287V104.158Z" fill="#1C2928"/>
<path d="M206.287 118.223H137.289V119.691H206.287V118.223Z" fill="#1C2928"/>
<path d="M206.233 118.221H137.312V119.689H206.233V118.221Z" fill="#1C2928"/>
<path d="M206.216 131.734H137.219V133.202H206.216V131.734Z" fill="#1C2928"/>
<path d="M206.216 145.811H137.219V147.279H206.216V145.811Z" fill="#1C2928"/>
<path d="M102.687 181.123H70.3125V182.591H102.687V181.123Z" fill="#1C2928"/>
<path d="M276.062 134.983C266.018 133.824 255.896 133.824 245.929 135.06C227.231 137.301 209.383 143.637 193.544 153.449L116.356 167.279C107.394 168.902 101.367 177.324 102.758 186.287C103.144 188.836 104.148 191.232 105.539 193.24L96.0357 194.863L20.5481 156.617C14.5987 153.681 7.49033 154.531 2.39086 158.78C-0.158876 160.867 -0.158952 164.807 2.31352 166.893L61.2665 217.656C67.2932 222.833 74.4788 226.387 82.2825 228.01L144.403 240.99C152.362 242.69 160.629 242.226 168.433 239.754L293.061 203.208L297.542 137.533L276.062 134.983Z" fill="#90573F"/>
<path d="M130.722 171.992L119.905 173.692C114.574 174.542 110.865 179.564 111.715 184.895C112.565 190.227 117.587 193.935 122.919 193.086L133.736 191.386L130.722 171.992Z" fill="#D0AB89"/>
<path d="M156.403 168.453L154.953 168.68L158.15 189.138L159.601 188.912L156.403 168.453Z" fill="#1C2928"/>
<path d="M119.355 201.276C110.779 201.276 103.439 195.095 102.125 186.441L103.593 186.209C104.829 194.399 112.092 200.194 120.359 199.73L202.956 194.785L203.033 196.253L120.437 201.198C120.05 201.198 119.664 201.276 119.355 201.276Z" fill="#1C2928"/>
<path d="M95.7382 195.559L20.2501 157.313C14.6097 154.531 7.81048 155.304 2.94277 159.322L2.01562 158.163C7.34692 153.759 14.7644 152.909 20.9456 155.922L96.4337 194.168L95.7382 195.559Z" fill="#1C2928"/>
</svg>
