<svg width="196" height="268" viewBox="0 0 196 268" fill="none" xmlns="http://www.w3.org/2000/svg">
<path d="M177.449 40.2561L144.305 67.2166L153.456 102.339L193.031 56.2098C196.309 52.4378 196.618 46.9344 193.835 42.7914C190.125 37.288 182.519 36.1131 177.449 40.2561Z" fill="#90573F"/>
<path d="M75.379 93.9845L73.5859 94.0039L73.8668 119.972L75.6598 119.953L75.379 93.9845Z" fill="#1C2928"/>
<path d="M132.17 203.196L91.0486 243.698V268H0.273438L31.5006 203.257V157.19C31.5006 152.181 32.4282 147.234 34.1596 142.596L50.1751 93.0657L53.0195 93.8696L55.9258 84.0377C56.4823 81.7497 55.6785 79.6473 54.9364 78.4724L56.1113 74.8859C56.2968 73.8347 56.9152 72.9072 57.719 72.227C58.5229 71.6086 59.5123 71.1758 60.6253 71.1758C62.7278 71.1758 64.7684 71.6705 66.6234 72.598C71.1993 74.8241 73.9201 79.7091 73.9201 84.7797L74.8476 189.035L81.1549 201.711L132.17 203.196Z" fill="#90573F"/>
<path d="M144.205 191.32L127.757 207.521H72.3516C73.2173 201.894 73.6501 196.453 73.712 191.32H144.205Z" fill="#1C2928"/>
<path d="M65.5234 146.862L73.0674 172.029V116.377L74.4896 93.9922L65.5234 146.862Z" fill="#1C2928"/>
<path d="M71.9868 212.712L70.8119 212.465C72.1723 205.539 72.9143 198.428 73.038 191.317C73.3472 165.717 65.0612 147.29 64.9375 147.104L66.0505 146.609C66.1124 146.795 74.5221 165.469 74.2747 191.317C74.151 198.552 73.409 205.725 71.9868 212.712Z" fill="#1C2928"/>
<path d="M80.3334 35.0625H71.3672V58.8693H80.3334V35.0625Z" fill="#1C2928"/>
<path d="M80.3334 91.2017L71.3672 76.7939V62.6953H80.3334V91.2017Z" fill="#1C2928"/>
<path d="M170.298 201.762H77.0496C75.5655 201.762 74.3906 200.587 74.3906 199.103V4.01051C74.3906 2.52645 75.5655 1.35156 77.0496 1.35156H170.298C171.782 1.35156 172.957 2.52645 172.957 4.01051V199.103C172.957 200.587 171.782 201.762 170.298 201.762Z" fill="white"/>
<path d="M166.96 0H80.4516C76.3704 0 73.0312 3.33914 73.0312 7.42031V137.028V140.924V195.711C73.0312 199.792 76.3704 203.131 80.4516 203.131H166.96C171.041 203.131 174.38 199.792 174.38 195.711V7.42031C174.38 3.33914 171.041 0 166.96 0ZM171.536 195.773C171.536 198.308 169.495 200.348 166.96 200.348H80.4516C77.9163 200.348 75.8757 198.308 75.8757 195.773V140.986V137.09V7.42031C75.8757 4.88504 77.9163 2.84445 80.4516 2.84445H166.96C169.495 2.84445 171.536 4.88504 171.536 7.42031V195.773Z" fill="#1C2928"/>
<path d="M79.2188 195.645V137.086L117.062 197.438H80.9501C80.0226 197.438 79.2188 196.634 79.2188 195.645Z" fill="#FED5D1"/>
<path d="M158.757 197.197L89.5625 90.9015L91.4176 89.7266L160.612 196.023L158.757 197.197Z" fill="#C8E993"/>
<path d="M92.6172 5.875H166.449C167.439 5.875 168.181 6.67886 168.181 7.6064V123.611L92.6172 5.875Z" fill="#FED5D1"/>
<path d="M125.512 7.29688C123.348 7.29688 121.555 9.02828 121.555 11.2544C121.555 13.4186 123.286 15.2119 125.512 15.2119C127.676 15.2119 129.47 13.4805 129.47 11.2544C129.408 9.02828 127.676 7.29688 125.512 7.29688Z" fill="#1C2928"/>
<path d="M125.467 10.3281C124.973 10.3281 124.602 10.6991 124.602 11.1938C124.602 11.6885 124.973 12.0595 125.467 12.0595C125.962 12.0595 126.333 11.6885 126.333 11.1938C126.333 10.761 125.962 10.3281 125.467 10.3281Z" fill="#FED5D1"/>
<path d="M176.008 56.7109H172.359V86.0212H176.008V56.7109Z" fill="#1C2928"/>
<path d="M173.861 146.176V159.594L169.161 177.217C168.295 180.495 168.357 183.958 169.594 187.111C171.573 192.182 175.592 195.83 181.405 196.881C183.321 197.19 185.177 196.016 185.733 194.222L193.215 170.601C194.637 166.149 193.277 161.326 189.752 158.234L173.861 146.176Z" fill="#90573F"/>
<path d="M177.892 196.454C171.956 194.167 169.544 189.034 168.802 186.87C167.751 183.84 167.627 180.501 168.555 177.1L173.254 159.477L174.429 159.786L169.729 177.409C168.864 180.563 168.987 183.716 169.977 186.437C170.657 188.416 172.883 193.177 178.325 195.28L177.892 196.454Z" fill="#1C2928"/>
<path d="M174.421 119.965V133.383L169.722 151.006C168.918 154.098 168.856 157.376 169.969 160.406C172.195 166.651 178.008 170.608 184.377 170.608H185.305L193.776 144.328C195.198 139.876 193.838 135.053 190.313 131.961L174.421 119.965Z" fill="#90573F"/>
<path d="M178.137 169.981C174.056 168.249 170.841 164.848 169.357 160.643C168.305 157.613 168.182 154.274 169.109 150.873L173.809 133.25L174.984 133.559L170.284 151.182C169.418 154.336 169.542 157.428 170.531 160.21C171.954 164.106 174.86 167.26 178.694 168.868L178.137 169.981Z" fill="#1C2928"/>
<path d="M187.4 147.294C184.679 145.13 180.598 146.366 179.547 149.706L176.641 158.981L185.05 165.659L189.131 152.736C189.688 150.757 189.008 148.593 187.4 147.294Z" fill="#D0AB89"/>
<path d="M187.033 173.079C184.312 170.915 180.231 172.152 179.18 175.491L176.273 184.766L184.683 191.444L186.847 184.642L188.764 178.521C189.321 176.542 188.641 174.378 187.033 173.079Z" fill="#D0AB89"/>
<path d="M55.9304 84.034L53.0242 93.8659L50.1797 93.062L54.8792 78.4688C55.6831 79.6436 56.4869 81.7461 55.9304 84.034Z" fill="#D0AB89"/>
<path d="M194.223 101.405V114.328C194.223 117.235 191.873 119.584 188.967 119.584H185.071C182.598 119.584 180.248 118.904 178.207 117.667C176.167 116.431 174.497 114.638 173.384 112.411C171.158 108.021 171.776 101.219 174.311 95.9631V81.2461L187.606 88.9756C189.214 89.9031 190.451 91.2635 191.255 92.9949L193.419 97.7563C193.975 98.9312 194.223 100.168 194.223 101.405Z" fill="#90573F"/>
<path d="M185.088 120.214C179.894 120.214 175.194 117.37 172.844 112.732C170.618 108.404 170.989 101.416 173.772 95.7891L174.823 96.3456C172.226 101.663 171.855 108.218 173.896 112.237C176.06 116.442 180.327 119.101 185.026 119.101V120.214H185.088Z" fill="#1C2928"/>
<path d="M176.008 56.7109H172.359V86.0212H176.008V56.7109Z" fill="#1C2928"/>
<path d="M74.413 84.6451H73.2381C73.2381 79.6364 70.5173 75.0605 66.3125 73.02L66.869 71.9688C71.4449 74.1948 74.413 79.2036 74.413 84.6451Z" fill="#1C2928"/>
<path d="M194.247 106.981C194.247 104.446 193.628 101.972 192.392 99.8081C191.093 97.3965 187.383 98.3241 187.383 101.107V103.951L194.247 114.34V106.981Z" fill="#D0AB89"/>
</svg>
