<svg width="288" height="268" viewBox="0 0 288 268" fill="none" xmlns="http://www.w3.org/2000/svg">
<path d="M188.451 83.4844H130.798L110.258 108.342L133.444 128.952L147.161 110.779V142.042H155.029C160.669 142.042 165.682 138.561 167.632 133.338L173.759 117.115L184.691 135.636L188.451 83.4844Z" fill="#1C2928"/>
<path d="M287.328 268H213.661L201.755 253.378C177.872 244.953 157.471 228.869 143.615 207.632L129.062 185.421L158.376 157.778H169.517C172.162 157.778 174.53 156.316 175.714 153.949L182.816 139.535C183.512 138.073 184.069 136.541 184.347 135.01C184.626 133.826 184.696 132.573 184.696 131.319V115.583C184.696 111.684 182.955 108.063 179.891 105.696L156.357 87.0356L155.173 86.1304L152.04 83.6238L151.97 83.5542L152.04 65.2419V62.596L155.173 60.159L156.357 59.2538C158.028 57.9309 160.326 57.5131 162.345 58.1398L175.992 62.4567L156.287 43.3089L155.103 42.1949L151.97 39.1312L145.634 32.9343L142.083 29.5225C134.633 22.2811 133.24 10.7924 138.81 2.01923C139.646 0.696286 141.039 0 142.431 0C143.336 0 144.172 0.278517 144.938 0.835545L149.812 4.3866C149.812 6.89322 150.926 9.33022 153.015 11.0013L162.693 18.4515L164.991 15.4575L197.368 39.0616C204.261 44.0748 209.414 51.1073 212.129 59.1842L287.328 268Z" fill="#90573F"/>
<path d="M186.64 97.2026H185.317V74.2252C185.317 72.5542 184.69 70.9527 183.506 69.6994L179.398 65.5217L180.373 64.5469L184.481 68.7246C185.943 70.1868 186.709 72.1364 186.709 74.1556V97.2026H186.64Z" fill="#1C2928"/>
<path d="M165.127 15.3873L162.83 18.3814L153.151 10.9311C150.993 9.32966 149.879 6.82303 149.948 4.31641L162.83 13.7162L165.127 15.3873Z" fill="#D0AB89"/>
<path d="M155.242 32.8633V42.1239L152.039 39.0602V32.8633H155.242Z" fill="#1C2928"/>
<path d="M155.242 60.0898V127.003H152.039V62.5268L155.242 60.0898Z" fill="#1C2928"/>
<path d="M128.266 137.472L115.07 146.172L116.45 148.265L129.646 139.565L128.266 137.472Z" fill="#1C2928"/>
<path d="M152.106 32.8672H0.664062V117.535H152.106V32.8672Z" fill="#FED5D1"/>
<path d="M43.6252 53.8242H11.0391V71.2313H43.6252V53.8242Z" fill="#C8E993"/>
<path d="M22.2492 58.3516H11.0391V60.0226H22.2492V58.3516Z" fill="#1C2928"/>
<path d="M22.2492 65.1016H11.0391V66.7727H22.2492V65.1016Z" fill="#1C2928"/>
<path d="M66.3275 91.8438H7.42188V101.383H66.3275V91.8438Z" fill="#FF614F"/>
<path d="M143.958 91.8438H131.703V101.383H143.958V91.8438Z" fill="#FF614F"/>
<path d="M173.412 170.104L117.988 106.255C111.721 99.0132 100.79 98.1081 93.4093 104.235C86.3768 110.015 84.9146 120.25 90.0671 127.77L139.155 199.975L173.412 170.104Z" fill="#90573F"/>
<path d="M114.439 113.148C110.958 108.622 104.483 107.787 99.9567 111.199C95.4309 114.68 94.5953 121.155 98.0071 125.681L107.825 138.423L124.257 125.821L114.439 113.148Z" fill="#D0AB89"/>
<path d="M138.739 141.932L120.578 156.234L121.397 157.274L139.557 142.971L138.739 141.932Z" fill="#1C2928"/>
</svg>
