<svg width="337" height="259" viewBox="0 0 337 259" fill="none" xmlns="http://www.w3.org/2000/svg">
<path d="M288.037 65.9369C229.353 66.5181 141.481 65.1914 82.7969 65.7727C83.8313 60.3638 83.5437 55.9803 84.5112 50.9199C109.932 51.7444 258.209 51.3264 289.711 51.3264C288.791 56.1374 288.442 59.5962 288.037 65.9369Z" fill="#FED5D1" stroke="#010101" stroke-width="1.5" stroke-linecap="round" stroke-linejoin="round"/>
<path d="M82.7926 65.7715C149.941 65.7715 240.042 65.9357 288.033 65.9357C281.759 120.521 282.182 125.785 275.786 163.921C206.653 163.571 141.791 163.922 72.6562 163.921C75.7646 145.387 80.0926 89.2632 82.7926 65.7715Z" fill="white" stroke="#010101" stroke-width="1.5" stroke-linecap="round" stroke-linejoin="round"/>
<path d="M92.4264 83.6982C114.286 83.6982 144.655 83.1512 170.556 83.6982C168.093 105.782 166.021 122.987 164.138 144.396C137.994 144.396 111.949 144.673 85.8125 145.843C85.9598 144.168 90.2132 103.542 92.4264 83.6982Z" fill="#FF614F" stroke="#010101" stroke-width="1.5" stroke-linecap="round" stroke-linejoin="round"/>
<path d="M134.771 120.765C131.821 112.528 120.556 100.478 117.579 97.385C117.205 96.9956 116.573 97.0475 116.267 97.4928C107.203 110.656 98.1574 125.135 95.727 130.208C95.7089 130.245 96.2982 130.208 96.3405 130.208C110.672 130.216 120.908 129.84 130.306 129.84C130.68 129.84 131.056 129.732 131.383 129.551C131.742 129.354 132.023 129.038 132.234 128.688C133.986 125.79 135.525 122.871 134.771 120.765Z" fill="white" stroke="#010101" stroke-width="1.5" stroke-linecap="round" stroke-linejoin="round"/>
<path d="M123.211 129.897C127.544 122.609 136.5 111.962 139.246 108.708C139.604 108.284 140.258 108.304 140.587 108.75C143.052 112.097 151.686 123.428 155.423 129.22C155.698 129.647 155.389 130.209 154.882 130.208C141.506 130.192 132.14 129.897 123.211 129.897V129.897Z" fill="white" stroke="#010101" stroke-width="1.5" stroke-linecap="round" stroke-linejoin="round"/>
<path d="M25.0954 202.778C21.7573 199.538 18.4297 196.298 15.0735 193.115C15.4873 189.247 15.1796 188.254 14.5525 184.842C14.4278 184.163 14.038 183.34 13.3501 183.395C12.6098 183.454 12.4057 184.414 12.2493 185.139C11.9179 186.677 11.7539 187.124 11.3204 187.712C9.06501 188.95 7.21943 189.953 5.51214 191.878C4.9992 192.455 2.31229 192.334 2.18406 193.095C2.07041 193.772 4.20666 195.594 4.63763 196.128C8.976 201.505 13.0836 206.206 16.8753 211.089C18.4413 213.106 27.8653 205.468 25.0949 202.778L25.0954 202.778Z" fill="white" stroke="#010101" stroke-width="1.5" stroke-linecap="round" stroke-linejoin="round"/>
<path d="M16.3529 181.981C16.0502 181.721 15.756 181.452 15.4704 181.174L13.4297 182.051C14.4375 182.796 14.9328 183.447 15.8561 184.325C15.9637 183.709 16.1739 182.759 16.3529 181.981Z" fill="white" stroke="#010101" stroke-width="1.5" stroke-linecap="round" stroke-linejoin="round"/>
<path d="M1.74677 195.102C1.30021 195.637 0.861197 196.171 0.445312 196.702C0.836556 197.17 2.07566 198.475 2.61928 198.834C3.12668 198.346 3.63057 197.843 4.13195 197.333C3.76183 196.987 3.29163 196.547 2.82194 196.106L1.74677 195.102V195.102Z" fill="#010101" stroke="#010101" stroke-width="1.5" stroke-linecap="round" stroke-linejoin="round"/>
<path d="M4.13517 197.332C6.49116 194.941 13.7855 186.884 15.8569 184.327C15.1428 183.7 13.4304 182.053 13.4304 182.053C11.3269 184.487 3.89027 192.539 1.75 195.1C2.07386 195.404 2.4485 195.755 2.82366 196.106L4.13517 197.332Z" fill="#FF614F" stroke="#010101" stroke-width="1.5" stroke-linecap="round" stroke-linejoin="round"/>
<path d="M16.6626 180.66L15.4688 181.173C15.7544 181.452 16.0486 181.721 16.3513 181.98C16.5208 181.243 16.6626 180.66 16.6626 180.66Z" fill="#010101" stroke="#010101" stroke-width="1.5" stroke-linecap="round" stroke-linejoin="round"/>
<path d="M2.46772 190.272C3.13756 188.724 4.78652 186.515 5.78522 185.649C6.1654 185.319 6.51541 184.86 6.98309 184.648C7.45228 184.436 7.98081 184.497 8.47414 184.601C9.91892 184.907 10.6059 184.816 11.7942 185.751C13.4064 187.021 12.5047 188.841 11.1902 188.277C9.53925 187.569 8.80202 187.586 7.50006 186.883C8.45503 187.365 8.59181 187.232 9.40347 187.522C10.2151 187.812 11.9677 188.69 12.0642 189.481C12.3297 191.651 10.0829 190.327 8.8166 190.116C7.55286 189.906 6.83172 189.549 5.60268 189.175C6.63459 189.491 7.12792 189.745 8.15984 190.06C8.61947 190.201 9.10375 190.532 9.48242 190.847C10.4092 191.617 10.4052 192.826 8.2232 192.592C6.71807 192.43 6.00348 192.182 4.49233 191.386C5.39599 191.638 5.74349 192.189 6.59939 192.589C7.10077 192.822 9.0248 194.742 6.93331 194.967C5.70929 195.099 4.27207 194.551 2.97614 193.845C1.63344 193.114 1.81548 191.779 2.46772 190.271V190.272Z" fill="white" stroke="#010101" stroke-width="1.5" stroke-linecap="round" stroke-linejoin="round"/>
<path d="M114.44 238.38C115.301 203.567 117.505 168.787 121.045 134.145C90.7509 136.684 55.1423 141.287 25.2927 144.948C23.3098 152.246 13.5302 212.978 8.55469 243.637C19.4396 244.51 29.803 244.532 43.4648 243.674C69.3462 242.615 95.1361 239.998 114.44 238.38Z" fill="#E5FAE8" stroke="#010101" stroke-width="1.5" stroke-linecap="round" stroke-linejoin="round"/>
<path d="M88.4547 148.165C87.9654 147.185 87.4374 146.226 86.8716 145.288C86.4718 144.626 86.0439 143.964 85.4515 143.466C84.6715 142.812 83.6667 142.495 82.6751 142.267C80.915 141.863 79.0779 141.694 77.2997 142.01C75.4567 142.337 73.7434 143.17 72.1115 144.089C70.6717 144.899 69.2491 145.805 68.185 147.07C67.2305 148.205 66.6064 149.581 66.1091 150.978C64.7257 154.866 64.2288 159.063 62.4622 162.791C61.4997 164.822 60.1786 166.671 59.2573 168.721C57.9433 171.646 57.4841 174.95 57.9513 178.123C60.9218 177.93 63.8924 177.738 66.8629 177.545C68.5737 177.434 70.3092 177.318 71.9264 176.749C73.5437 176.18 75.0559 175.09 75.7448 173.518C76.2718 172.315 76.2749 170.959 76.3246 169.647C76.4091 167.434 76.6525 165.23 76.8954 163.029C77.0941 161.23 77.3043 159.391 78.0993 157.767C80.2009 153.476 85.7718 151.78 88.4552 148.165L88.4547 148.165Z" fill="#010101" stroke="#010101" stroke-width="1.5" stroke-linecap="round" stroke-linejoin="round"/>
<path d="M94.1589 227.11C101.09 213.807 110.784 201.957 122.443 192.534C125.896 189.743 129.7 187.086 134.083 186.396C136.872 185.957 140.051 186.505 141.84 188.692C144.588 192.049 142.761 197.052 140.741 200.892C133.724 214.233 125.481 226.926 116.895 239.261C113.123 238.46 109.331 237.653 105.732 236.267C102.132 234.881 98.701 232.879 96.1302 230C94.9339 228.659 93.9236 227.133 94.1594 227.111L94.1589 227.11Z" fill="#86DD94" stroke="#010101" stroke-width="1.5" stroke-linecap="round" stroke-linejoin="round"/>
<path d="M146.981 239.605C153.689 229.664 160.162 220.952 163.198 209.345C164.035 206.145 164.328 202.158 161.738 200.106C159.145 198.051 155.344 199.257 152.386 200.737C136.281 208.793 123.279 222.894 116.703 239.736C129.335 239.736 136.882 239.93 146.981 239.605Z" fill="#86DD94" stroke="#010101" stroke-width="1.5" stroke-linecap="round" stroke-linejoin="round"/>
<path d="M145.927 220.666C144.722 217.158 143.517 213.65 142.312 210.143L145.927 220.666Z" fill="#86DD94"/>
<path d="M145.927 220.666C144.722 217.158 143.517 213.65 142.312 210.143" stroke="#010101" stroke-width="1.5" stroke-linecap="round" stroke-linejoin="round"/>
<path d="M139.609 230.457C143.984 229.414 148.312 228.178 152.578 226.754L139.609 230.457Z" fill="#86DD94"/>
<path d="M139.609 230.457C143.984 229.414 148.312 228.178 152.578 226.754" stroke="#010101" stroke-width="1.5" stroke-linecap="round" stroke-linejoin="round"/>
<path d="M124.204 203.714C123.344 201.334 122.484 198.954 121.625 196.574L124.204 203.714Z" fill="#86DD94"/>
<path d="M124.204 203.714C123.344 201.334 122.484 198.954 121.625 196.574" stroke="#010101" stroke-width="1.5" stroke-linecap="round" stroke-linejoin="round"/>
<path d="M117.961 213.237C122.025 213.377 126.107 212.956 130.057 211.992L117.961 213.237Z" fill="#86DD94"/>
<path d="M117.961 213.237C122.025 213.377 126.107 212.956 130.057 211.992" stroke="#010101" stroke-width="1.5" stroke-linecap="round" stroke-linejoin="round"/>
<path d="M133.422 239.45C138.471 231.692 143.524 223.926 149.084 216.526C152.587 211.862 156.29 207.346 159.643 202.572" stroke="#010101" stroke-width="1.5" stroke-linecap="round" stroke-linejoin="round"/>
<path d="M110.289 223.394C119.181 211.404 128.22 199.524 137.404 187.756" stroke="#010101" stroke-width="1.5" stroke-linecap="round" stroke-linejoin="round"/>
<path d="M17.1294 191.567C23.6432 197.87 30.4603 203.858 37.5485 209.504C39.647 204.775 41.7842 200.063 43.9597 195.368C45.8108 191.374 47.7374 187.321 50.7442 184.107C58.0676 176.28 69.7989 175.165 80.3051 173.084C93.622 170.447 106.478 165.489 118.122 158.5C119.551 157.643 120.989 156.731 122.042 155.438C124.146 152.856 128.086 144.04 132.504 133.244C136.793 134.053 140.214 138.288 144.502 139.097C141.423 150.395 139.673 156.516 134.381 166.96C132.99 169.705 131.476 172.478 129.148 174.487C127.294 176.089 125.025 177.117 122.772 178.079C115.085 181.359 107.178 184.121 99.121 186.337C99.1512 198.804 99.7607 209.94 100.522 224.064C86.2346 224.613 70.6553 225.302 56.4348 226.784C57.2827 218.213 57.1725 209.733 57.7755 203.635C55.951 207.662 46.1136 225.089 39.5766 225.442C35.9166 225.639 32.3703 224.412 29.181 222.604C20.3363 217.588 13.0993 209.91 6.70312 201.998C10.2862 198.171 13.2134 195.329 17.1279 191.567H17.1294Z" fill="#112F1D" stroke="#010101" stroke-width="1.5" stroke-linecap="round" stroke-linejoin="round"/>
<path d="M268.227 167.057C270.969 142.664 275.003 111.6 278.178 87.2598C264.459 87.2598 254.597 87.3746 242.914 87.6803C240.198 112.066 236.469 142.582 234.852 167.877C245.353 167.973 257.493 167.741 268.227 167.058V167.057Z" fill="white" stroke="#010101" stroke-width="1.5" stroke-linecap="round" stroke-linejoin="round"/>
<path d="M270.926 110.886C268.84 111.896 252.636 111.803 244.813 111.787C244.79 105.659 245.32 99.5843 246.195 93.5609C255.263 92.7792 264.11 92.549 272.952 93.0366C271.93 99.0036 271.159 105.014 270.926 110.886Z" stroke="#010101" stroke-width="1.5" stroke-linecap="round" stroke-linejoin="round"/>
<path d="M246.195 93.5605C254.934 98.8713 262.498 104.574 270.917 110.38" stroke="#010101" stroke-width="1.5" stroke-linecap="round" stroke-linejoin="round"/>
<path d="M272.482 93.4863C263.285 99.5309 254.088 105.576 244.891 111.62" stroke="#010101" stroke-width="1.5" stroke-linecap="round" stroke-linejoin="round"/>
<path d="M268.363 134.847C266.278 135.856 250.073 135.764 242.251 135.748C242.227 129.62 242.757 123.545 243.632 117.522C252.7 116.74 261.547 116.51 270.389 116.998C269.368 122.965 268.597 128.975 268.363 134.847Z" stroke="#010101" stroke-width="1.5" stroke-linecap="round" stroke-linejoin="round"/>
<path d="M243.633 117.521C252.371 122.832 259.936 128.535 268.355 134.341" stroke="#010101" stroke-width="1.5" stroke-linecap="round" stroke-linejoin="round"/>
<path d="M269.92 117.445C260.723 123.49 251.525 129.535 242.328 135.579" stroke="#010101" stroke-width="1.5" stroke-linecap="round" stroke-linejoin="round"/>
<path d="M324.028 50.4949C323.568 53.59 322.642 56.6034 321.17 59.422C320.196 61.2921 319.038 62.994 317.713 64.5549C315.126 67.6333 311.927 70.1431 308.383 72.1915C302.571 75.5576 295.828 77.6876 289.286 79.0586C281.893 80.6089 274.117 81.5029 266.838 79.6821C266.113 79.4978 265.388 79.2918 264.674 79.0536C261.027 77.8447 257.72 75.9046 254.819 73.4276C250.133 69.4274 246.513 64.0346 244.24 58.0832C242.73 54.143 241.81 49.953 241.561 45.7634C241.269 40.7771 241.794 35.7036 243.46 31.0099C246.118 23.5138 251.61 17.2753 258.142 12.9392C264.679 8.60308 283.782 0.662689 298.502 5.95831C306.279 8.74965 312.329 15.3241 316.95 22.316C322.362 30.5057 325.441 40.9126 324.029 50.4949H324.028Z" fill="#112F1D" stroke="#010101" stroke-width="1.5" stroke-linecap="round" stroke-linejoin="round"/>
<path d="M267.95 1.22281C268.193 1.2767 268.576 1.08178 268.766 1.24245C268.813 1.05861 269.073 1.00774 269.237 1.10344C269.401 1.19914 269.489 1.38298 269.567 1.55574C269.661 1.18957 270.236 0.946799 270.611 0.983063C271.603 1.07876 271.181 1.45651 271.536 1.58646C271.765 0.81937 273.07 1.20166 273.014 2.1269C272.98 2.06344 273.007 1.97429 273.072 1.94205C274.186 1.72749 274.229 2.32786 274.403 3.0184C274.79 2.71619 275.248 2.90457 275.39 3.25966C275.327 3.01084 275.63 2.79678 275.883 2.8406C276.135 2.88442 276.326 3.08639 276.497 3.27628C276.729 3.11611 277.058 3.17655 277.285 3.34327C277.512 3.50998 277.659 3.76081 277.799 4.00459C278.054 3.95976 278.33 4.05898 278.498 4.25642C278.666 4.45386 278.721 4.74196 278.636 4.98674C278.599 4.92781 278.675 4.85075 278.744 4.85881C278.813 4.86687 278.865 4.92379 278.908 4.97768C279.186 5.31968 279.425 5.69391 279.617 6.0903C280.177 6.39048 280.407 6.96719 280.25 7.44769C280.514 7.56253 280.64 7.91862 280.508 8.17499C280.821 8.17298 281.038 8.49079 281.134 8.78947C281.229 9.08815 281.275 9.42359 281.496 9.64621C281.71 9.86279 282.079 9.96252 282.146 10.2602C282.209 10.5397 281.954 10.782 281.72 10.9477C282.012 10.9704 282.226 11.2247 282.382 11.472C282.707 11.9868 282.938 12.5615 283.059 13.1588C283.503 13.3165 283.772 13.5618 283.81 13.8544C283.848 14.147 283.649 14.4522 283.366 14.5364C283.738 14.7313 284.07 15.0481 284.176 15.4556C284.282 15.863 284.102 16.3556 283.713 16.5138C283.981 16.6095 284.242 16.7822 284.351 17.0461C284.46 17.3101 284.359 17.6697 284.091 17.7674C284.245 17.8193 284.399 17.8717 284.553 17.9235C284.593 18.4282 284.539 18.9405 284.394 19.4255C284.663 19.7383 284.798 19.9458 284.774 20.1467C284.751 20.3477 284.574 20.5195 284.373 20.5361C284.602 20.7129 284.708 21.0352 284.629 21.3143C284.55 21.5933 284.29 21.8114 284.002 21.8406C284.306 22.037 284.338 22.5397 284.062 22.7734C284.169 23.1275 284.11 23.5289 283.904 23.8366C284.057 23.9626 284.082 24.1464 284.038 24.2532C283.842 24.7211 283.486 25.1195 283.044 25.3663C283.098 25.3255 283.15 25.4217 283.146 25.4887C283.117 25.9964 282.766 26.4356 282.353 26.7297C282.129 26.8884 281.88 27.0193 281.7 27.2258C281.417 27.5517 281.35 28.008 281.295 28.4367C280.734 29.1962 280.577 30.3154 280.226 31.36C279.124 34.6353 276.121 36.9966 272.86 38.1258C269.599 39.255 266.075 39.3215 262.625 39.2444C261.675 39.2233 260.702 39.187 259.826 38.8203C258.95 38.4532 258.18 37.681 258.091 36.7341C257.765 36.5956 257.538 36.4642 257.421 36.2637C257.303 36.0633 257.298 35.8008 257.408 35.5964C257.235 35.7585 256.944 35.7757 256.753 35.6346C256.562 35.4936 256.492 35.211 256.595 34.9965C256.442 35.1148 256.188 35.0589 256.099 34.8877C256.01 34.7164 256.111 34.4757 256.296 34.4193C256.085 34.6358 255.686 34.5014 255.534 34.2395C255.383 33.9776 255.404 33.6542 255.431 33.353C255.185 33.5736 254.567 33.4119 254.462 33.0352C254.357 32.6584 254.591 32.2731 254.856 31.986C254.695 32.4101 254.051 32.5411 253.738 32.2132C253.425 31.8853 253.583 31.2472 254.013 31.1036C253.682 31.3031 253.219 31.2461 252.946 30.9727C253.008 30.683 253.212 30.4272 253.48 30.3033C253.191 30.6347 252.598 30.6241 252.321 30.2826C252.043 29.9411 252.152 29.3584 252.535 29.1408C252.109 29.1957 251.662 28.9323 251.502 28.5324C251.343 28.1325 251.486 27.6333 251.833 27.379C251.422 27.4293 250.993 27.1825 250.829 26.8023C250.666 26.422 250.782 25.94 251.101 25.676C250.411 25.6075 250.151 24.4985 250.739 24.1298C250.11 23.9404 249.911 22.9708 250.415 22.5493C249.704 22.4687 249.448 21.3228 250.057 20.9466C249.482 20.7476 249.361 19.8224 249.867 19.4824C249.693 19.3978 249.518 19.3132 249.344 19.2286C250.171 18.4725 249.109 16.8477 249.886 16.0403C249.416 15.6198 249.5 14.7408 250.043 14.4185C249.66 14.1601 249.663 13.0193 249.832 12.5887C250.056 12.0175 250.403 12.0009 250.627 11.4297C250.442 11.332 250.346 10.2582 250.408 10.0577C250.603 9.43064 251.43 9.66082 251.77 9.09872C252.052 8.63031 251.765 7.54188 252.134 7.13743C252.502 6.73298 252.88 7.1062 253.322 6.78436C253.263 6.08627 254.044 5.27737 254.584 5.65261C254.248 4.23829 256.029 4.06049 256.144 4.72131C256.201 4.46494 255.969 3.72051 256.218 3.63691C256.467 3.5538 256.757 3.61021 256.957 3.78096C256.841 3.4712 256.957 3.08992 257.227 2.89903C257.496 2.70814 257.894 2.72476 258.147 2.93731C258.07 2.67792 258.19 2.37269 258.424 2.2362C258.658 2.0997 259.29 1.9904 259.539 2.31527C259.466 1.33765 261.243 1.50789 261.309 1.64338C261.29 1.386 261.544 1.17496 261.8 1.14625C262.056 1.11754 262.307 1.21979 262.543 1.32153C262.664 0.973493 262.883 0.639056 263.217 0.48443C263.55 0.329803 263.853 0.72065 264.037 1.03947C264.145 0.712088 264.436 0.452699 264.773 0.3842C265.11 0.3157 265.634 0.748856 265.86 1.00774C266.077 0.705036 266.458 0.529255 266.828 0.56149C267.198 0.593725 267.544 0.832465 267.95 1.2218V1.22281Z" fill="#010101" stroke="#010101" stroke-width="1.5" stroke-linecap="round" stroke-linejoin="round"/>
<path d="M223.966 85.6684C220.461 87.0242 216.929 88.3811 213.356 89.738C211.471 88.6078 209.247 87.4383 207.184 88.1928C206.172 88.5625 205.376 89.3487 204.637 90.1324C203.007 91.861 199.248 94.1618 200.08 95.6078C200.935 96.2646 202.8 94.7677 203.931 93.8842C205.063 93.0008 206.209 92.0257 207.614 91.7351C209.019 91.4445 210.752 92.1541 211.013 93.5669C211.268 94.944 210.004 96.1971 208.66 96.5809C207.315 96.9647 205.882 96.7627 204.486 96.8413C203.745 96.8831 202.855 97.1344 202.673 97.8557C202.372 99.0519 204.169 99.5233 205.394 99.3868C211.717 98.6822 218.019 97.7832 224.288 96.6932C234.736 94.876 232.494 82.3688 223.965 85.6689L223.966 85.6684Z" fill="white" stroke="#010101" stroke-width="1.5" stroke-linecap="round" stroke-linejoin="round"/>
<path d="M198.641 96.7144C203.678 93.2129 208.715 90.0196 213.752 86.5176C214.207 87.3235 214.662 88.1293 215.117 88.9352C210.036 92.4579 205.108 95.9806 200.027 99.5032C199.491 98.8082 198.933 97.7031 198.641 96.7139V96.7144Z" fill="white" stroke="#010101" stroke-width="1.5" stroke-linecap="round" stroke-linejoin="round"/>
<path d="M198.596 96.7949C198.071 97.7328 197.534 98.664 196.984 99.5883C197.989 99.6543 198.997 99.6502 200.001 99.5772C199.383 98.6691 198.766 97.761 198.596 96.7949Z" stroke="#010101" stroke-width="1.5" stroke-linecap="round" stroke-linejoin="round"/>
<path d="M211.594 88.293C212.038 88.8641 212.481 89.4358 212.925 90.007L211.594 88.293Z" fill="white"/>
<path d="M211.594 88.293C212.038 88.8641 212.481 89.4358 212.925 90.007" stroke="#010101" stroke-width="1.5" stroke-linecap="round" stroke-linejoin="round"/>
<path d="M254.578 16.3818C254.802 16.1989 254.665 15.8454 254.659 15.5563C254.653 15.2671 255.132 15.0178 255.163 15.3054C254.801 15.2682 254.486 14.8461 254.666 14.5293C254.847 14.2125 255.485 14.4557 255.332 14.7866C255.022 14.6224 254.904 14.1767 255.092 13.88C255.279 13.5834 255.731 13.4993 256.012 13.7088C255.924 13.3512 255.835 12.9941 255.746 12.6365C255.943 12.635 256.14 12.634 256.336 12.6324C256.518 12.2809 256.362 11.7948 256.009 11.6155C255.86 11.9056 256.448 12.1056 256.599 11.817C256.751 11.5284 256.506 11.1703 256.207 11.0398C255.946 11.0967 255.956 11.544 256.205 11.6407C256.454 11.7379 256.744 11.5198 256.793 11.2569C256.842 10.994 256.706 10.7266 256.519 10.5357C256.971 10.4722 257.266 9.90053 257.056 9.49508C257.152 9.70662 257.555 9.51119 257.449 9.30469C257.611 9.52026 257.772 9.73533 257.934 9.9509C257.706 10.1257 257.671 10.5034 257.864 10.717C258.057 10.9305 258.436 10.9336 258.632 10.7225C258.379 10.8998 258.309 11.2907 258.484 11.545C258.66 11.7994 259.049 11.8729 259.304 11.6996C259.156 11.9434 259.229 12.297 259.461 12.4622C259.693 12.6279 260.051 12.5806 260.232 12.3605C260.179 12.7281 260.543 13.0933 260.91 13.0399C261.278 12.9865 261.523 12.5317 261.367 12.1948C261.094 12.6047 261.337 13.2515 261.812 13.3794C262.287 13.5078 262.821 13.0716 262.792 12.5801C262.395 12.909 262.556 13.6735 263.052 13.8141C263.549 13.9546 264.085 13.3869 263.918 12.8984C263.756 13.333 264.123 13.873 264.585 13.8826C265.048 13.8921 265.436 13.3673 265.293 12.9266C264.883 13.1366 264.862 13.8266 265.258 14.0609C265.655 14.2951 266.248 13.943 266.233 13.4816C266.027 13.8402 266.197 14.3605 266.575 14.5278C266.953 14.695 267.451 14.4708 267.577 14.0765C267.591 14.3792 267.856 14.6491 268.157 14.6698C268.459 14.6904 268.757 14.4582 268.812 14.1606C268.59 14.1727 268.553 14.5298 268.724 14.6723C268.896 14.8148 269.144 14.7982 269.365 14.7735C269.586 14.7489 269.834 14.7312 270.007 14.8718C270.03 14.5791 270.054 14.287 270.077 13.9944C270.049 14.2099 270.146 14.4371 270.204 14.6083C270.713 14.5293 270.871 13.88 271.235 13.5159C271.5 13.2504 271.882 13.1396 272.252 13.0797C272.536 13.0339 272.832 13.0122 273.107 13.0948C273.427 13.191 273.689 13.4177 273.931 13.6478C274.221 13.9233 274.499 14.217 274.703 14.561C275.151 15.3195 275.185 16.2982 274.824 17.1015C274.463 17.9049 273.419 19.6012 272.482 19.9598C274.048 23.0796 274.781 25.475 276.697 28.3168C277.887 28.2009 279.479 27.4857 281.037 27.0445C282.73 28.3258 284.299 29.9225 284.945 31.9467C285.652 34.1634 285.156 36.5946 284.306 38.7604C283.838 39.9506 283.253 41.1176 282.376 42.0463C281.44 43.0365 280.218 43.7074 278.972 44.2569C275.359 45.85 271.357 46.5471 267.419 46.2681C266.104 46.1749 264.767 45.9649 263.606 45.3403C262.181 44.5732 261.116 43.2053 260.603 41.6681C260.09 40.1309 260.11 38.44 260.537 36.8771C260.672 36.3846 260.854 35.8895 261.194 35.5082C261.58 35.0755 262.129 34.8327 262.661 34.6031C263.885 34.0737 265.109 33.5444 266.318 32.9309C265.883 31.8948 265.409 30.8754 264.838 29.7195C262.317 30.7238 259.158 29.7361 257.655 27.4736C257.131 26.6849 256.802 25.7843 256.509 24.8837C255.59 22.0622 254.977 19.1414 254.578 16.3793V16.3818Z" fill="white" stroke="#010101" stroke-width="1.5" stroke-linecap="round" stroke-linejoin="round"/>
<path d="M324.023 50.4959C323.563 53.591 322.638 56.6044 321.166 59.423C320.192 61.2931 319.034 62.995 317.708 64.5559C310.446 59.5368 303.465 52.9896 297.004 47.4935C300.559 55.2173 304.769 64.3338 308.379 72.193C302.566 75.5591 295.824 77.6891 289.281 79.0601C281.889 80.6104 274.112 81.5044 266.834 79.6836C266.666 79.2716 266.488 78.838 266.299 78.3827C263.977 72.8705 261.185 65.0439 258.857 59.5318C257.629 63.884 256.179 68.762 254.815 73.4291C254.23 75.4291 253.662 77.3965 253.137 79.2611C252.526 81.4183 251.887 83.6349 250.496 85.3968C248.603 87.8033 245.604 89.0011 242.753 90.096C234.24 93.3588 225.733 96.6221 217.632 99.6356C216.484 95.5976 215.342 91.5597 214.195 87.5218C222.074 84.4811 229.959 81.446 238.212 77.9389C240.22 71.3212 242.228 64.703 244.235 58.0852C245.236 54.7791 246.238 51.4781 247.238 48.1775C247.877 46.0692 248.532 43.923 249.771 42.1017C252.422 38.2104 257.195 36.4863 261.914 34.9526C262.78 37.9122 264.966 40.4487 267.759 41.7441C270.546 43.034 273.896 43.0612 276.704 41.8091C278.328 41.0828 279.789 39.9339 280.72 38.4108C282.722 35.1264 281.932 30.9147 280.72 27.1316C283.924 25.9122 287.381 24.6818 290.699 25.5491C292.712 26.0749 294.449 27.3321 296.122 28.5736C305.63 35.6145 314.932 42.9262 324.024 50.4979L324.023 50.4959Z" fill="white" stroke="#010101" stroke-width="1.5" stroke-linecap="round" stroke-linejoin="round"/>
<path d="M274.758 42.4473C278.519 53.2097 283.045 65.0611 286.805 75.8235" stroke="#010101" stroke-width="1.5" stroke-linecap="round" stroke-linejoin="round"/>
<path d="M266.188 77.8519C280.164 78.0115 289.243 76.0674 307.349 69.9473" stroke="#010101" stroke-width="1.5" stroke-linecap="round" stroke-linejoin="round"/>
<path d="M258.673 20.0859C258.665 21.3622 258.656 22.639 258.648 23.9153C259.296 24.0594 259.977 24.0523 260.621 23.8962" stroke="#010101" stroke-width="1.5" stroke-linecap="round" stroke-linejoin="round"/>
<path d="M264.484 29.8879C265.75 29.5857 266.777 28.6872 267.747 27.8184" stroke="#010101" stroke-width="1.5" stroke-linecap="round" stroke-linejoin="round"/>
<path d="M280.99 47.8965C280.788 47.9912 280.617 48.166 280.559 48.3821C280.501 48.5981 280.572 48.8515 280.753 48.9819C280.933 49.1109 281.174 49.1023 281.394 49.0781C281.479 49.0691 281.568 49.057 281.639 49.0096C281.704 48.9668 281.747 48.8988 281.788 48.8328C281.856 48.7246 281.922 48.6132 281.953 48.4898C281.984 48.3664 281.977 48.2269 281.905 48.1222C281.859 48.0552 281.789 48.0068 281.716 47.9695C281.558 47.889 281.343 47.7318 280.99 47.8965Z" stroke="#010101" stroke-width="1.5" stroke-linecap="round" stroke-linejoin="round"/>
<path d="M287.634 66.7088C287.287 66.66 286.922 66.9314 286.886 67.2805C286.849 67.629 287.165 67.9771 287.514 67.9589C287.79 67.9443 288.03 67.7237 288.108 67.4588C288.185 67.1939 288.145 66.7819 287.634 66.7093L287.634 66.7088Z" stroke="#010101" stroke-width="1.5" stroke-linecap="round" stroke-linejoin="round"/>
<path d="M284.899 58.0721C284.553 58.0233 284.188 58.2947 284.151 58.6438C284.115 58.9928 284.43 59.3404 284.78 59.3222C285.056 59.3076 285.296 59.087 285.373 58.8221C285.451 58.5571 285.411 58.1451 284.9 58.0726L284.899 58.0721Z" stroke="#010101" stroke-width="1.5" stroke-linecap="round" stroke-linejoin="round"/>
<path d="M73.138 159.964C72.5803 160.521 71.7158 160.748 70.9565 160.539C70.1971 160.329 69.572 159.69 69.3784 158.925C69.2638 158.472 69.2929 157.993 69.3945 157.539C69.5997 156.618 70.1433 155.732 70.9907 155.321C71.838 154.91 72.9942 155.102 73.494 155.982C74.445 156.491 75.668 156.187 76.5143 155.518C77.3607 154.849 77.9078 153.88 78.4117 152.925C79.5854 150.701 80.6601 148.351 80.8432 145.842C82.8964 147.599 85.7146 148.426 88.4468 147.926C89.0909 149.727 89.3685 151.635 89.6431 153.528C89.878 155.15 90.0057 156.794 89.7663 158.415C89.0733 163.114 86.9874 164.258 83.9952 165.297C84.0802 167.355 84.1657 169.413 84.3769 171.556C85.8901 171.389 87.3982 171.173 88.7887 170.819C89.1634 174.95 88.9079 179.194 87.5114 183.099C86.1149 187.005 83.5054 190.557 79.8897 192.412C77.8505 191.763 75.8686 190.787 74.369 189.258C73.2677 188.135 72.4646 186.754 71.7767 185.339C70.1594 182.012 69.1159 178.949 69.133 175.098C70.175 174.898 72.0362 174.533 73.0676 174.133C73.0676 169.814 73.138 165.542 73.138 159.963V159.964Z" fill="white" stroke="#010101" stroke-width="1.5" stroke-linecap="round" stroke-linejoin="round"/>
<path d="M79.9688 164.818C81.2023 165.444 82.6567 165.622 84.0049 165.311" stroke="#010101" stroke-width="1.5" stroke-linecap="round" stroke-linejoin="round"/>
<path d="M84.8203 152.486C85.6013 153.625 86.2641 154.846 86.7941 156.121C86.2897 156.454 85.7622 156.753 85.2171 157.014" stroke="#010101" stroke-width="1.5" stroke-linecap="round" stroke-linejoin="round"/>
<path d="M79.8906 192.412C80.2668 203.351 80.3749 214.008 80.7511 224.946" stroke="#010101" stroke-width="1.5" stroke-linecap="round" stroke-linejoin="round"/>
<path d="M83.6172 249.633C84.8819 251.263 86.1472 252.892 87.4119 254.521C87.7303 254.931 88.1658 255.387 88.6727 255.278C89.0156 252.057 89.0443 248.803 88.7577 245.576C86.454 246.299 84.2951 247.482 83.6172 249.633Z" fill="white" stroke="#010101" stroke-width="1.5" stroke-linecap="round" stroke-linejoin="round"/>
<path d="M56.4369 226.783C46.4597 227.474 41.5204 226.994 35.004 230.27C33.7151 230.919 32.4906 231.737 31.5447 232.827C28.1899 236.694 29.4039 243.118 33.0991 246.659C36.7943 250.201 42.2008 251.344 47.3151 251.354C52.4294 251.364 55.8505 251.128 62.6223 250.409C65.9751 250.053 68.137 252.424 68.137 252.424C68.137 252.424 87.4205 251.055 97.8498 249.822C108.454 248.568 138.536 241.703 119.902 227.439C115.89 224.368 105.561 223.715 100.523 224.063C91.7026 224.674 73.7003 225.587 56.4369 226.783Z" fill="#010101" stroke="#010101" stroke-width="1.5" stroke-linecap="round" stroke-linejoin="round"/>
<path d="M70.5599 236.107C67.3847 235.893 66.1054 235.817 62.9237 235.858C62.9237 242.167 62.1839 252.103 61.7841 257.009C61.7203 257.793 62.7371 258.149 63.1751 257.496C65.421 254.145 69.2147 248.529 69.5517 248.331C69.867 248.145 70.6228 248.342 70.5861 247.977C70.2381 244.52 70.5604 240.849 70.5604 236.107L70.5599 236.107Z" fill="white" stroke="#010101" stroke-width="1.5" stroke-linecap="round" stroke-linejoin="round"/>
<path d="M42.8672 233.914C52.3531 234.264 61.3235 233.9 70.8144 233.736" stroke="white" stroke-width="1.5" stroke-linecap="round" stroke-linejoin="round"/>
<path d="M103.774 229.023C92.7896 229.64 81.8363 230.802 70.9675 232.503C70.1141 239.003 69.8737 245.584 70.2514 252.129" stroke="white" stroke-width="1.5" stroke-linecap="round" stroke-linejoin="round"/>
<path d="M133.809 133.48C134.927 131.613 135.847 128.001 136.623 125.148C136.745 124.7 137.084 124.143 137.519 124.304C137.739 124.384 137.852 124.623 137.935 124.842C138.392 126.047 138.605 127.344 138.557 128.632C139.728 125.63 142.115 122.061 143.791 119.31C144.57 118.174 145.474 118.946 145.571 119.392C145.667 119.838 145.355 120.333 145.203 120.763C144.424 122.962 142.764 124.951 142.171 127.094C144.335 128.053 147.994 130.154 147.74 131.719C147.487 133.283 143.309 137.357 142.479 138.706C141.186 138.167 135.551 134.644 133.809 133.48Z" fill="white" stroke="#010101" stroke-width="1.5" stroke-linecap="round" stroke-linejoin="round"/>
<path d="M142.788 126.133C142.082 127.173 141.355 128.455 140.648 129.495C140.49 129.728 140.329 129.967 140.261 130.24C140.192 130.513 140.235 130.832 140.439 131.025C140.735 131.306 141.223 131.214 141.586 131.025C142.786 130.398 143.882 128.281 144.915 127.404C144.02 128.357 143.241 129.419 142.603 130.561C142.35 131.012 142.116 131.558 142.329 132.029C142.378 132.138 142.458 132.243 142.572 132.278C142.651 132.302 142.736 132.291 142.817 132.275C143.658 132.112 144.353 131.525 144.934 130.894C145.515 130.263 146.032 129.56 146.718 129.047C146.02 129.924 145.321 130.801 144.622 131.679C143.923 132.556 144.044 133.267 144.959 133.472C145.668 133.63 147.094 132.525 147.735 131.72C147.979 131.415 148.37 131.013 147.825 130.01C147.125 128.719 143.84 125.779 142.789 126.134L142.788 126.133Z" fill="white" stroke="#010101" stroke-width="1.5" stroke-linecap="round" stroke-linejoin="round"/>
<path d="M175.336 103.168C176.152 101.435 177.938 100.201 179.846 100.053C183.026 99.8048 186.056 102.332 189.175 101.663C190.248 101.433 191.206 100.84 192.244 100.485C193.123 100.184 194.062 100.057 194.989 100.113C195.587 100.148 196.357 100.164 196.586 99.6094" stroke="#010101" stroke-width="1.5" stroke-linecap="round" stroke-linejoin="round"/>
<path d="M174.508 117.441C175.856 115.552 178.239 114.458 180.548 114.669C182.457 114.844 184.244 115.834 186.161 115.847C188.355 115.863 190.348 114.605 192.502 114.189C195.073 113.693 197.702 114.418 200.314 114.606C206.517 115.053 212.809 112.468 218.872 113.854C220.786 114.292 222.658 115.123 224.62 115.024C227.209 114.893 229.762 113.15 232.224 113.966" stroke="#010101" stroke-width="1.5" stroke-linecap="round" stroke-linejoin="round"/>
<path d="M175.281 134.137C176.908 132.854 178.716 131.506 180.787 131.542C182.715 131.575 184.408 132.811 186.287 133.245C188.304 133.711 190.405 133.231 192.42 132.753" stroke="#010101" stroke-width="1.5" stroke-linecap="round" stroke-linejoin="round"/>
<path d="M46.9688 38.9192C51.3765 36.0815 54.6463 31.5217 55.9226 26.4316C56.3128 28.6402 56.7126 30.8786 57.6681 32.9068C58.6241 34.9351 60.2197 36.7624 62.3364 37.4943C59.1782 39.8328 57.0531 43.5217 56.6115 47.4307C55.6681 42.7244 51.5249 38.8416 46.9688 38.9192Z" stroke="#010101" stroke-width="1.5" stroke-linecap="round" stroke-linejoin="round"/>
<path d="M309.406 112.578C311.245 111.207 312.732 109.367 313.686 107.279C313.732 108.444 313.784 109.636 314.218 110.718C314.652 111.8 315.551 112.768 316.701 112.955C315.162 113.809 314.014 115.34 313.623 117.058C313.605 115.07 311.806 113.271 309.406 112.578Z" stroke="#010101" stroke-width="1.5" stroke-linecap="round" stroke-linejoin="round"/>
<path d="M179.289 210.857C182.042 209.579 184.394 207.452 185.944 204.84C185.85 207.465 187.737 210.031 190.268 210.719C187.778 212.108 186.09 214.841 185.961 217.694C186.04 214.438 183.32 211.36 179.289 210.857Z" stroke="#010101" stroke-width="1.5" stroke-linecap="round" stroke-linejoin="round"/>
<path d="M19.2422 115.969C20.339 116.152 21.4353 116.335 22.532 116.518" stroke="#010101" stroke-width="1.5" stroke-linecap="round" stroke-linejoin="round"/>
<path d="M209.5 31.9492C209.805 33.1087 210.109 34.2676 210.414 35.4271" stroke="#010101" stroke-width="1.5" stroke-linecap="round" stroke-linejoin="round"/>
<path d="M205.448 223.449C205.083 224.975 204.717 226.5 204.352 228.026" stroke="#010101" stroke-width="1.5" stroke-linecap="round" stroke-linejoin="round"/>
<path d="M146.624 42.428C146.052 42.6078 145.767 43.3658 146.045 43.8982C146.322 44.4306 147.06 44.6416 147.596 44.3742C148.128 44.1087 148.405 43.3985 148.151 42.8601C147.897 42.3217 147.197 42.2476 146.623 42.428H146.624Z" fill="#010101" stroke="#010101" stroke-width="1.5" stroke-linecap="round" stroke-linejoin="round"/>
<path d="M334.929 137.137C334.357 137.317 334.072 138.075 334.349 138.607C334.626 139.14 335.365 139.351 335.901 139.083C336.433 138.818 336.71 138.108 336.456 137.569C336.202 137.031 335.502 136.957 334.929 137.137Z" fill="#010101" stroke="#010101" stroke-width="1.5" stroke-linecap="round" stroke-linejoin="round"/>
<path d="M233.483 213.983C232.911 214.162 232.627 214.92 232.904 215.453C233.181 215.985 233.919 216.196 234.455 215.929C234.987 215.663 235.264 214.953 235.011 214.415C234.757 213.876 234.057 213.802 233.483 213.983H233.483Z" fill="#010101" stroke="#010101" stroke-width="1.5" stroke-linecap="round" stroke-linejoin="round"/>
<path d="M24.5751 141.846C22.8608 141.859 21.2083 143.173 20.9237 144.866C20.6396 146.56 21.8696 148.4 23.5628 148.67C25.3521 148.956 27.1519 147.424 27.3546 145.621C27.5572 143.818 26.3116 142.017 24.5751 141.846V141.846Z" fill="#010101" stroke="#010101" stroke-width="1.5" stroke-linecap="round" stroke-linejoin="round"/>
<path d="M9.64546 239.648C7.93113 239.662 6.27866 240.976 5.99403 242.669C5.7099 244.362 6.93995 246.203 8.63316 246.473C10.4224 246.758 12.2222 245.227 12.4249 243.424C12.6276 241.62 11.3819 239.82 9.64546 239.649V239.648Z" fill="#010101" stroke="#010101" stroke-width="1.5" stroke-linecap="round" stroke-linejoin="round"/>
<path d="M121.255 131.541C119.541 131.555 117.888 132.868 117.603 134.562C117.319 136.255 118.549 138.096 120.243 138.366C122.032 138.651 123.832 137.12 124.034 135.317C124.237 133.513 122.991 131.712 121.255 131.542V131.541Z" fill="#010101" stroke="#010101" stroke-width="1.5" stroke-linecap="round" stroke-linejoin="round"/>
<path d="M328.169 181.997C328.028 188.371 327.146 194.87 325.16 200.838C323.737 205.13 321.74 209.147 319.045 212.653C318.975 212.745 318.899 212.843 318.818 212.935C314.245 218.757 308.157 222.567 301.441 224.816C294.06 227.293 285.921 227.879 278.215 227.18C272.835 226.692 267.527 225.483 262.451 223.429C259.409 222.198 256.72 220.762 254.333 219.185C238.131 208.469 236.145 191.038 236.675 184.003C236.713 183.494 236.767 183.038 236.826 182.643C237.692 176.984 239.18 171.396 241.291 166.138C244.04 159.298 247.85 153.011 252.747 147.818C261.411 138.637 273.636 133.2 285.623 134.577C298.329 136.03 313.352 140.67 321.464 153.168C326.8 161.396 328.396 171.911 328.169 181.998L328.169 181.997Z" fill="#E5FAE8" stroke="#010101" stroke-width="1.5" stroke-linecap="round" stroke-linejoin="round"/>
<path d="M325.161 200.839C323.738 205.132 321.741 209.148 319.046 212.655C318.975 212.747 318.899 212.845 318.818 212.937C318.434 213.116 318.05 213.289 317.666 213.463C314.094 207.262 310.068 201.322 305.63 195.706C304.321 203.994 303.011 212.281 301.701 220.563C301.68 221.967 301.664 223.425 301.441 224.818C294.06 227.295 285.921 227.88 278.215 227.181C272.835 226.694 267.527 225.485 262.451 223.43C259.409 222.2 256.72 220.764 254.333 219.186C255.172 208.205 257.245 199.382 257.829 188.243C253.468 187.523 241.773 185.393 236.675 184.005C235.55 183.701 234.749 183.43 234.413 183.219C225.506 177.615 220.912 158.796 216.609 149.409C221.068 147.073 225.528 144.742 229.987 142.406C233.017 150.428 236.654 158.78 241.292 166.141C242.168 167.544 243.089 168.916 244.046 170.238C253.533 171.008 263.874 171.441 276.353 172.45C276.618 175.778 279.27 181.063 283.746 181.621C291.143 182.542 293.373 178.303 294.385 173.794C298.768 174.081 301.355 174.238 305.771 175.052C306.87 175.252 307.947 175.648 308.856 176.293C309.916 177.046 310.636 178.179 311.329 179.274C314.414 184.168 317.503 189.063 320.588 193.957C322.06 196.282 323.532 198.624 325.161 200.841V200.839Z" fill="#010101" stroke="#010101" stroke-width="1.5" stroke-linecap="round" stroke-linejoin="round"/>
<path d="M300.007 194.296C296.592 194.12 293.189 193.698 289.693 192.883C289.157 195.953 288.76 199.047 288.602 202.204C288.806 202.785 289.384 203.136 289.924 203.432C291.128 204.094 292.39 204.742 293.76 204.84C295.759 204.985 297.649 203.939 299.076 202.68C299.707 199.724 299.996 196.694 300.007 194.296V194.296Z" stroke="white" stroke-width="1.5" stroke-linecap="round" stroke-linejoin="round"/>
<path d="M195.227 121.586C195.322 127.544 195.418 133.503 195.513 139.462C204.531 138.606 213.582 139.613 222.639 139.435C223.247 132.365 222.722 128.448 223.344 121.219C217.613 121.579 200.599 121.248 195.227 121.586Z" fill="#FED5D1" stroke="#010101" stroke-width="1.5" stroke-linecap="round" stroke-linejoin="round"/>
<path d="M228.179 143.2C227.622 141.238 227.039 139.222 225.792 137.609C225.252 136.911 224.602 136.308 223.955 135.708C222.848 134.683 221.662 133.615 220.183 133.318C219.962 133.274 219.724 133.25 219.519 133.344C219.112 133.532 219.036 134.114 219.229 134.519C219.422 134.925 219.797 135.206 220.129 135.509C221.151 136.443 222.024 137.977 223.058 139.309C220.773 139.552 218.488 139.375 216.203 139.618C216.536 141.247 218.095 146.335 219.122 147.896C223.021 146.182 224.145 145.226 228.179 143.2L228.179 143.2Z" fill="white" stroke="#010101" stroke-width="1.5" stroke-linecap="round" stroke-linejoin="round"/>
<path d="M277.812 152.592C278.086 149.562 278.374 146.47 279.594 143.685C279.891 143.006 280.25 142.339 280.778 141.82C281.543 141.066 282.614 140.681 283.683 140.581C284.751 140.481 285.827 140.644 286.877 140.863C289.957 141.505 292.916 142.62 295.845 143.768C296.777 144.133 297.721 144.509 298.515 145.119C300.25 146.448 301.174 148.615 301.107 150.802C301.04 152.988 300.224 155.084 299.25 157.041C297.154 161.255 293.853 163.837 290.367 166.995C288.706 164.747 288.215 161 286.142 157.598C284.558 155 282.304 152.713 277.812 152.592V152.592Z" fill="#010101" stroke="#010101" stroke-width="1.5" stroke-linecap="round" stroke-linejoin="round"/>
<path d="M223.173 139.461C222.689 139.8 222.306 140.282 222.085 140.831C221.96 141.142 221.887 141.47 221.822 141.798C221.716 142.334 221.632 142.897 221.792 143.42" stroke="#010101" stroke-width="1.5" stroke-linecap="round" stroke-linejoin="round"/>
<path d="M280.74 165.712C280.308 167.938 280.329 169.43 279.705 172.647C278.289 172.571 277.536 172.442 276.126 172.59C274.929 175.609 276.103 181.001 278.704 182.633C279.581 183.183 280.575 183.52 281.582 183.758C283.067 184.109 284.601 184.254 286.126 184.186C287.997 184.102 289.887 183.685 291.489 182.713C293.091 181.742 294.382 178.367 294.763 176.53C294.906 175.838 295.423 173.995 294.741 173.818C293.614 173.524 291.742 173.29 290.359 173.113C290.989 168.899 291.492 164.841 291.995 160.784C293.551 160.875 295.176 159.8 295.518 158.304C295.763 157.232 295.206 155.899 294.124 155.707C293.44 155.586 292.742 155.949 292.28 156.469C291.818 156.988 291.547 157.645 291.284 158.289C290.889 158.225 290.494 158.16 290.1 158.096C289.923 157.392 290.593 156.632 290.294 155.971C290.026 155.377 289.185 155.323 288.729 154.857C288.197 154.315 288.35 153.413 288.642 152.711C288.934 152.01 289.337 151.283 289.191 150.537C288.975 149.437 287.703 148.917 286.592 148.789C285.48 148.661 284.261 148.704 283.373 148.022C283.053 147.776 282.794 147.445 282.433 147.266C281.866 146.983 281.155 147.148 280.643 147.523C280.132 147.899 279.783 148.453 279.473 149.007C278.671 150.44 278.043 151.97 277.537 153.624C276.547 156.21 275.541 158.996 276.195 161.687C276.358 162.354 276.626 163.006 277.058 163.54C277.587 164.194 278.328 164.635 279.06 165.05C279.619 165.367 280.755 165.638 280.741 165.712L280.74 165.712Z" fill="white" stroke="#010101" stroke-width="1.5" stroke-linecap="round" stroke-linejoin="round"/>
<path d="M280.398 165.625C281.697 166.001 283.04 166.219 284.39 166.276" stroke="#010101" stroke-width="1.5" stroke-linecap="round" stroke-linejoin="round"/>
<path d="M280.535 154.523C279.976 155.341 279.417 156.159 278.857 156.976C278.828 157.018 278.798 157.065 278.806 157.116C278.814 157.164 278.853 157.199 278.891 157.228C279.365 157.589 279.727 157.631 280.604 157.965" stroke="#010101" stroke-width="1.5" stroke-linecap="round" stroke-linejoin="round"/>
<path d="M67.8828 88.4902C75.9762 88.2968 84.0651 87.8919 92.1374 87.2754L67.8828 88.4902Z" fill="#E5FAE8"/>
<path d="M67.9844 94.0924C72.3212 94.0572 76.6566 93.8476 80.9769 93.4648L67.9844 94.0924Z" fill="#E5FAE8"/>
<path d="M147.25 239.727C151.911 239.674 156.572 239.621 161.234 239.568" stroke="#010101" stroke-width="1.5" stroke-linecap="round" stroke-linejoin="round"/>
</svg>
